<svg id="visual" viewBox="0 0 675 900" width="675" height="900" xmlns="http://www.w3.org/2000/svg" xmlns:xlink="http://www.w3.org/1999/xlink" version="1.1"><rect x="0" y="0" width="675" height="900" fill="#e6e5e5"></rect><path d="M0 375L113 399L225 501L338 481L450 414L563 357L675 467L675 901L563 901L450 901L338 901L225 901L113 901L0 901Z" fill="#bfbfbf"></path><path d="M0 537L113 508L225 526L338 483L450 525L563 452L675 443L675 901L563 901L450 901L338 901L225 901L113 901L0 901Z" fill="#a7a7a7"></path><path d="M0 595L113 541L225 521L338 592L450 529L563 504L675 558L675 901L563 901L450 901L338 901L225 901L113 901L0 901Z" fill="#909090"></path><path d="M0 621L113 645L225 593L338 613L450 606L563 620L675 658L675 901L563 901L450 901L338 901L225 901L113 901L0 901Z" fill="#7a7a7a"></path><path d="M0 692L113 656L225 717L338 673L450 653L563 676L675 651L675 901L563 901L450 901L338 901L225 901L113 901L0 901Z" fill="#656565"></path><path d="M0 733L113 736L225 717L338 751L450 767L563 769L675 753L675 901L563 901L450 901L338 901L225 901L113 901L0 901Z" fill="#505050"></path><path d="M0 817L113 807L225 833L338 807L450 829L563 791L675 790L675 901L563 901L450 901L338 901L225 901L113 901L0 901Z" fill="#3c3c3c"></path></svg>