<svg id="visual" viewBox="0 0 900 450" width="900" height="450" xmlns="http://www.w3.org/2000/svg" xmlns:xlink="http://www.w3.org/1999/xlink" version="1.1"><rect x="0" y="0" width="900" height="450" fill="#e6e5e5"></rect><path d="M0 224L113 183L225 162L338 125L450 147L563 175L675 144L788 135L900 141L900 451L788 451L675 451L563 451L450 451L338 451L225 451L113 451L0 451Z" fill="#bfbfbf"></path><path d="M0 162L113 213L225 172L338 180L450 254L563 262L675 228L788 222L900 225L900 451L788 451L675 451L563 451L450 451L338 451L225 451L113 451L0 451Z" fill="#a3a3a3"></path><path d="M0 309L113 238L225 267L338 231L450 302L563 215L675 273L788 303L900 305L900 451L788 451L675 451L563 451L450 451L338 451L225 451L113 451L0 451Z" fill="#878787"></path><path d="M0 294L113 340L225 300L338 295L450 296L563 323L675 332L788 346L900 289L900 451L788 451L675 451L563 451L450 451L338 451L225 451L113 451L0 451Z" fill="#6d6d6d"></path><path d="M0 326L113 325L225 377L338 328L450 344L563 355L675 320L788 380L900 371L900 451L788 451L675 451L563 451L450 451L338 451L225 451L113 451L0 451Z" fill="#545454"></path><path d="M0 371L113 382L225 383L338 375L450 393L563 386L675 387L788 395L900 396L900 451L788 451L675 451L563 451L450 451L338 451L225 451L113 451L0 451Z" fill="#3c3c3c"></path></svg>