<svg id="visual" viewBox="0 0 675 900" width="675" height="900" xmlns="http://www.w3.org/2000/svg" xmlns:xlink="http://www.w3.org/1999/xlink" version="1.1"><rect x="0" y="0" width="675" height="900" fill="#e6e5e5"></rect><path d="M0 583L75 517L150 677L225 497L300 514L375 625L450 598L525 517L600 641L675 659L675 0L600 0L525 0L450 0L375 0L300 0L225 0L150 0L75 0L0 0Z" fill="#bfbfbf"></path><path d="M0 524L75 576L150 463L225 484L300 524L375 490L450 507L525 428L600 542L675 541L675 0L600 0L525 0L450 0L375 0L300 0L225 0L150 0L75 0L0 0Z" fill="#a7a7a7"></path><path d="M0 402L75 444L150 368L225 431L300 383L375 422L450 407L525 403L600 479L675 364L675 0L600 0L525 0L450 0L375 0L300 0L225 0L150 0L75 0L0 0Z" fill="#909090"></path><path d="M0 405L75 366L150 350L225 318L300 397L375 341L450 316L525 378L600 366L675 346L675 0L600 0L525 0L450 0L375 0L300 0L225 0L150 0L75 0L0 0Z" fill="#7a7a7a"></path><path d="M0 262L75 306L150 321L225 315L300 222L375 268L450 294L525 320L600 263L675 266L675 0L600 0L525 0L450 0L375 0L300 0L225 0L150 0L75 0L0 0Z" fill="#656565"></path><path d="M0 163L75 166L150 169L225 217L300 203L375 187L450 206L525 195L600 158L675 226L675 0L600 0L525 0L450 0L375 0L300 0L225 0L150 0L75 0L0 0Z" fill="#505050"></path><path d="M0 135L75 133L150 127L225 139L300 109L375 79L450 116L525 78L600 99L675 102L675 0L600 0L525 0L450 0L375 0L300 0L225 0L150 0L75 0L0 0Z" fill="#3c3c3c"></path></svg>