<svg id="visual" viewBox="0 0 675 900" width="675" height="900" xmlns="http://www.w3.org/2000/svg" xmlns:xlink="http://www.w3.org/1999/xlink" version="1.1"><rect x="0" y="0" width="675" height="900" fill="#e6e5e5"></rect><path d="M0 518L113 599L225 645L338 669L450 605L563 668L675 566L675 0L563 0L450 0L338 0L225 0L113 0L0 0Z" fill="#bfbfbf"></path><path d="M0 575L113 504L225 512L338 438L450 471L563 443L675 464L675 0L563 0L450 0L338 0L225 0L113 0L0 0Z" fill="#a7a7a7"></path><path d="M0 450L113 408L225 369L338 471L450 471L563 478L675 384L675 0L563 0L450 0L338 0L225 0L113 0L0 0Z" fill="#909090"></path><path d="M0 299L113 315L225 349L338 370L450 304L563 307L675 380L675 0L563 0L450 0L338 0L225 0L113 0L0 0Z" fill="#7a7a7a"></path><path d="M0 267L113 307L225 264L338 309L450 300L563 312L675 234L675 0L563 0L450 0L338 0L225 0L113 0L0 0Z" fill="#656565"></path><path d="M0 223L113 149L225 173L338 206L450 193L563 201L675 150L675 0L563 0L450 0L338 0L225 0L113 0L0 0Z" fill="#505050"></path><path d="M0 118L113 128L225 141L338 109L450 121L563 103L675 105L675 0L563 0L450 0L338 0L225 0L113 0L0 0Z" fill="#3c3c3c"></path></svg>