<svg id="visual" viewBox="0 0 675 900" width="675" height="900" xmlns="http://www.w3.org/2000/svg" xmlns:xlink="http://www.w3.org/1999/xlink" version="1.1"><rect x="0" y="0" width="675" height="900" fill="#e6e5e5"></rect><path d="M0 367L113 398L225 325L338 331L450 263L563 373L675 302L675 901L563 901L450 901L338 901L225 901L113 901L0 901Z" fill="#bfbfbf"></path><path d="M0 408L113 385L225 388L338 462L450 476L563 370L675 343L675 901L563 901L450 901L338 901L225 901L113 901L0 901Z" fill="#a7a7a7"></path><path d="M0 487L113 423L225 422L338 474L450 494L563 418L675 482L675 901L563 901L450 901L338 901L225 901L113 901L0 901Z" fill="#909090"></path><path d="M0 562L113 610L225 544L338 514L450 589L563 570L675 559L675 901L563 901L450 901L338 901L225 901L113 901L0 901Z" fill="#7a7a7a"></path><path d="M0 670L113 640L225 581L338 646L450 586L563 678L675 633L675 901L563 901L450 901L338 901L225 901L113 901L0 901Z" fill="#656565"></path><path d="M0 736L113 718L225 682L338 732L450 723L563 688L675 715L675 901L563 901L450 901L338 901L225 901L113 901L0 901Z" fill="#505050"></path><path d="M0 780L113 797L225 797L338 780L450 779L563 761L675 770L675 901L563 901L450 901L338 901L225 901L113 901L0 901Z" fill="#3c3c3c"></path></svg>