<svg id="visual" viewBox="0 0 900 600" width="900" height="600" xmlns="http://www.w3.org/2000/svg" xmlns:xlink="http://www.w3.org/1999/xlink" version="1.1"><rect x="0" y="0" width="900" height="600" fill="#e6e5e5"></rect><path d="M0 214L129 246L257 219L386 233L514 180L643 249L771 216L900 255L900 0L771 0L643 0L514 0L386 0L257 0L129 0L0 0Z" fill="#c3c3c3"></path><path d="M0 116L129 180L257 195L386 115L514 137L643 181L771 126L900 156L900 0L771 0L643 0L514 0L386 0L257 0L129 0L0 0Z" fill="#939393"></path><path d="M0 83L129 72L257 107L386 106L514 84L643 136L771 80L900 88L900 0L771 0L643 0L514 0L386 0L257 0L129 0L0 0Z" fill="#666666"></path><path d="M0 28L129 52L257 59L386 58L514 25L643 74L771 89L900 58L900 0L771 0L643 0L514 0L386 0L257 0L129 0L0 0Z" fill="#3c3c3c"></path></svg>