<?xml version="1.0" encoding="UTF-8"?>
<!DOCTYPE svg PUBLIC "-//W3C//DTD SVG 1.1//EN" "http://www.w3.org/Graphics/SVG/1.1/DTD/svg11.dtd">
<svg xmlns="http://www.w3.org/2000/svg" version="1.1" width="500px" height="500px" style="shape-rendering:geometricPrecision; text-rendering:geometricPrecision; image-rendering:optimizeQuality; fill-rule:evenodd; clip-rule:evenodd" xmlns:xlink="http://www.w3.org/1999/xlink">
<g><path style="opacity:0.999" fill="#170a0a" d="M 210.5,-0.5 C 214.167,-0.5 217.833,-0.5 221.5,-0.5C 222.131,3.80375 222.631,8.13708 223,12.5C 225.434,7.06402 229.434,3.39735 235,1.5C 236.621,1.72467 237.788,2.558 238.5,4C 237.291,8.41842 235.291,12.4184 232.5,16C 258.081,13.0677 283.748,12.7344 309.5,15C 325.709,15.6186 339.876,21.1186 352,31.5C 358.873,41.3578 361.707,52.3578 360.5,64.5C 360.22,74.8644 359.553,85.1978 358.5,95.5C 350.874,94.0658 344.708,96.3992 340,102.5C 338.025,106.632 335.858,110.632 333.5,114.5C 325.794,109.134 321.46,101.801 320.5,92.5C 312.399,92.0547 305.066,89.5547 298.5,85C 294.144,81.1225 291.811,76.2891 291.5,70.5C 284.738,72.2326 277.904,73.5659 271,74.5C 262.451,74.7195 254.617,72.5528 247.5,68C 243.326,64.9917 239.659,61.4917 236.5,57.5C 224.539,64.9324 211.539,69.5991 197.5,71.5C 197.344,77.1157 196.344,82.4491 194.5,87.5C 191.491,74.846 192.158,62.346 196.5,50C 192.56,42.8571 191.727,35.3571 194,27.5C 195.717,15.7031 201.217,6.36976 210.5,-0.5 Z"/></g>
<g><path style="opacity:1" fill="#eaa375" d="M 358.5,95.5 C 361.845,96.6799 364.011,99.0132 365,102.5C 366.091,108.097 365.424,113.43 363,118.5C 356.256,127.237 347.756,133.737 337.5,138C 324.313,149.355 310.98,160.521 297.5,171.5C 296.481,173.46 296.481,175.46 297.5,177.5C 292.61,183.207 286.276,186.374 278.5,187C 273.833,187.667 269.167,187.667 264.5,187C 260.082,184.922 255.748,182.755 251.5,180.5C 247.709,181.565 244.042,182.899 240.5,184.5C 240.611,183.883 240.944,183.383 241.5,183C 212.394,176.894 196.228,159.061 193,129.5C 192.246,115.45 192.746,101.45 194.5,87.5C 196.344,82.4491 197.344,77.1157 197.5,71.5C 211.539,69.5991 224.539,64.9324 236.5,57.5C 239.659,61.4917 243.326,64.9917 247.5,68C 254.617,72.5528 262.451,74.7195 271,74.5C 277.904,73.5659 284.738,72.2326 291.5,70.5C 291.811,76.2891 294.144,81.1225 298.5,85C 305.066,89.5547 312.399,92.0547 320.5,92.5C 321.46,101.801 325.794,109.134 333.5,114.5C 335.858,110.632 338.025,106.632 340,102.5C 344.708,96.3992 350.874,94.0658 358.5,95.5 Z"/></g>
<g><path style="opacity:1" fill="#080503" d="M 284.5,118.5 C 281.877,120.265 278.877,120.932 275.5,120.5C 269.936,117.936 268.102,113.603 270,107.5C 271.474,103.359 274.307,100.526 278.5,99C 280.167,98.3333 281.833,98.3333 283.5,99C 277.062,101.057 277.062,102.724 283.5,104C 288.398,108.546 288.732,113.38 284.5,118.5 Z"/></g>
<g><path style="opacity:1" fill="#080503" d="M 231.5,120.5 C 228.061,120.747 224.728,120.414 221.5,119.5C 215.979,109.201 218.812,102.201 230,98.5C 230.833,98.6667 231.667,98.8333 232.5,99C 230.668,99.7485 229.001,100.748 227.5,102C 236.32,104.834 238.487,110.334 234,118.5C 233.005,119.066 232.172,119.733 231.5,120.5 Z"/></g>
<g><path style="opacity:1" fill="#110c08" d="M 246.5,117.5 C 251.591,117.246 255.591,119.246 258.5,123.5C 256.39,123.706 254.39,122.873 252.5,121C 249.975,120.104 247.808,120.604 246,122.5C 245.667,125.167 245.333,127.833 245,130.5C 241.362,125.666 241.862,121.333 246.5,117.5 Z"/></g>
<g><path style="opacity:1" fill="#f17058" d="M 221.5,119.5 C 224.728,120.414 228.061,120.747 231.5,120.5C 239.064,127.635 239.397,135.135 232.5,143C 220.525,148.346 213.192,144.68 210.5,132C 211.231,125.11 214.897,120.943 221.5,119.5 Z"/></g>
<g><path style="opacity:1" fill="#f17058" d="M 284.5,118.5 C 297.735,121.641 301.235,129.307 295,141.5C 287.725,147.062 280.725,146.729 274,140.5C 270.024,133.599 270.858,127.432 276.5,122C 275.944,121.617 275.611,121.117 275.5,120.5C 278.877,120.932 281.877,120.265 284.5,118.5 Z"/></g>
<g><path style="opacity:1" fill="#16100b" d="M 238.5,134.5 C 240.934,136.749 243.601,138.916 246.5,141C 255.546,144.77 263.38,142.937 270,135.5C 270.167,136 270.333,136.5 270.5,137C 264.372,146.784 256.038,149.118 245.5,144C 241.798,141.804 239.464,138.637 238.5,134.5 Z"/></g>
<g><path style="opacity:1" fill="#efd693" d="M 297.5,177.5 C 318.308,181.406 336.975,189.906 353.5,203C 376.383,221.601 394.383,244.101 407.5,270.5C 404.696,272.101 401.696,273.101 398.5,273.5C 387.343,276.539 376.343,280.039 365.5,284C 364.666,288.54 365.166,293.04 367,297.5C 368.87,305.815 367.037,313.148 361.5,319.5C 348.049,331.778 332.715,340.945 315.5,347C 312.631,348.596 309.964,350.43 307.5,352.5C 271.832,352.667 236.165,352.5 200.5,352C 199.934,351.005 199.267,350.172 198.5,349.5C 194.323,341.808 190.656,333.808 187.5,325.5C 187.771,323.62 187.104,322.287 185.5,321.5C 184.069,320.22 183.402,318.553 183.5,316.5C 185.721,305.229 188.388,294.062 191.5,283C 182.962,279.654 174.295,276.82 165.5,274.5C 163.833,271.833 162.167,269.167 160.5,266.5C 160.672,265.508 160.338,264.842 159.5,264.5C 159.5,263.167 159.5,261.833 159.5,260.5C 174.738,232.757 195.738,210.257 222.5,193C 228.401,189.882 234.401,187.049 240.5,184.5C 244.042,182.899 247.709,181.565 251.5,180.5C 255.748,182.755 260.082,184.922 264.5,187C 269.167,187.667 273.833,187.667 278.5,187C 286.276,186.374 292.61,183.207 297.5,177.5 Z"/></g>
<g><path style="opacity:1" fill="#dcb966" d="M 140.5,225.5 C 141.833,225.5 142.5,226.167 142.5,227.5C 142.992,229.819 143.992,231.819 145.5,233.5C 149.801,244.101 154.468,254.434 159.5,264.5C 160.338,264.842 160.672,265.508 160.5,266.5C 161.376,270.582 163.043,274.249 165.5,277.5C 166.71,282.251 168.71,286.584 171.5,290.5C 172.71,295.251 174.71,299.584 177.5,303.5C 177.402,305.553 178.069,307.22 179.5,308.5C 179.992,310.819 180.992,312.819 182.5,314.5C 182.328,315.492 182.662,316.158 183.5,316.5C 183.402,318.553 184.069,320.22 185.5,321.5C 185.66,323.153 186.326,324.486 187.5,325.5C 190.656,333.808 194.323,341.808 198.5,349.5C 202.631,359.104 206.798,368.771 211,378.5C 211.969,381.328 211.303,383.662 209,385.5C 208.768,384.263 208.268,383.263 207.5,382.5C 205.056,375.797 202.056,369.463 198.5,363.5C 198.421,358.508 197.421,358.508 195.5,363.5C 194.289,362.726 194.289,361.893 195.5,361C 186.84,360.5 178.173,360.334 169.5,360.5C 169.5,368.833 169.5,377.167 169.5,385.5C 179.167,385.5 188.833,385.5 198.5,385.5C 188.681,386.494 178.681,386.827 168.5,386.5C 168.5,377.5 168.5,368.5 168.5,359.5C 177.833,359.5 187.167,359.5 196.5,359.5C 187.859,337.876 178.359,316.542 168,295.5C 167.814,298.036 167.314,300.369 166.5,302.5C 166.802,299.941 166.468,297.607 165.5,295.5C 166.582,293.177 166.415,290.843 165,288.5C 158.575,274.355 152.075,260.355 145.5,246.5C 145.34,244.847 144.674,243.514 143.5,242.5C 142.054,238.123 140.054,234.123 137.5,230.5C 137.389,229.883 137.056,229.383 136.5,229C 133.667,228.833 130.833,228.667 128,228.5C 108.331,229.918 88.8313,231.584 69.5,233.5C 67.8333,233.5 66.1667,233.5 64.5,233.5C 63.1667,233.5 61.8333,233.5 60.5,233.5C 58.4727,233.662 56.4727,233.495 54.5,233C 55.3279,232.085 56.3279,231.419 57.5,231C 85.1589,228.951 112.826,227.118 140.5,225.5 Z"/></g>
<g><path style="opacity:1" fill="#6280c3" d="M 137.5,230.5 C 140.054,234.123 142.054,238.123 143.5,242.5C 141.658,242.277 139.825,241.943 138,241.5C 136.289,241.439 134.956,242.106 134,243.5C 132.312,241.152 130.478,240.985 128.5,243C 125.854,243.497 123.187,243.664 120.5,243.5C 121.919,242.549 123.585,242.216 125.5,242.5C 126.614,237.428 124.947,233.761 120.5,231.5C 125.944,229.311 131.611,228.978 137.5,230.5 Z"/></g>
<g><path style="opacity:1" fill="#5e4c53" d="M 142.5,227.5 C 144.539,228.911 145.539,230.911 145.5,233.5C 143.992,231.819 142.992,229.819 142.5,227.5 Z"/></g>
<g><path style="opacity:1" fill="#6e584c" d="M 140.5,225.5 C 112.826,227.118 85.1589,228.951 57.5,231C 56.3279,231.419 55.3279,232.085 54.5,233C 56.4727,233.495 58.4727,233.662 60.5,233.5C 60.6716,234.492 60.3382,235.158 59.5,235.5C 57.0521,234.527 54.3854,234.194 51.5,234.5C 52.6728,232.496 54.3395,230.996 56.5,230C 83.5451,228.289 110.545,226.122 137.5,223.5C 139.038,223.453 140.038,224.12 140.5,225.5 Z"/></g>
<g><path style="opacity:1" fill="#5c567b" d="M 137.5,230.5 C 131.611,228.978 125.944,229.311 120.5,231.5C 117.306,230.048 114.306,230.381 111.5,232.5C 105.322,231.383 98.9885,231.383 92.5,232.5C 92.1667,232.5 91.8333,232.5 91.5,232.5C 84.1912,233.248 76.8578,233.582 69.5,233.5C 88.8313,231.584 108.331,229.918 128,228.5C 130.833,228.667 133.667,228.833 136.5,229C 137.056,229.383 137.389,229.883 137.5,230.5 Z"/></g>
<g><path style="opacity:1" fill="#6487cb" d="M 111.5,232.5 C 109.827,233.343 108.66,234.676 108,236.5C 107.505,239.531 107.671,242.531 108.5,245.5C 108.385,248.342 107.385,250.842 105.5,253C 105.978,254.642 106.978,255.809 108.5,256.5C 105.083,260.688 101.083,261.355 96.5,258.5C 96.1667,257.833 95.8333,257.167 95.5,256.5C 96.4959,256.586 97.3292,256.252 98,255.5C 102.489,258.543 104.322,257.209 103.5,251.5C 106.431,251.09 107.097,249.756 105.5,247.5C 103.706,240.704 99.3724,236.704 92.5,235.5C 92.5,234.5 92.5,233.5 92.5,232.5C 98.9885,231.383 105.322,231.383 111.5,232.5 Z"/></g>
<g><path style="opacity:1" fill="#e8ba22" d="M 120.5,231.5 C 124.947,233.761 126.614,237.428 125.5,242.5C 123.585,242.216 121.919,242.549 120.5,243.5C 118.178,244.225 115.845,243.892 113.5,242.5C 111.577,243.092 109.911,244.092 108.5,245.5C 107.671,242.531 107.505,239.531 108,236.5C 108.66,234.676 109.827,233.343 111.5,232.5C 114.306,230.381 117.306,230.048 120.5,231.5 Z"/></g>
<g><path style="opacity:1" fill="#5f7fc4" d="M 91.5,232.5 C 91.6309,233.376 91.2975,234.043 90.5,234.5C 83.6555,236.014 78.9889,240.014 76.5,246.5C 75.8333,245.167 75.1667,243.833 74.5,242.5C 73.8333,242.5 73.5,242.167 73.5,241.5C 73.3893,240.883 73.056,240.383 72.5,240C 67.2649,240.873 64.5982,238.706 64.5,233.5C 66.1667,233.5 67.8333,233.5 69.5,233.5C 76.8578,233.582 84.1912,233.248 91.5,232.5 Z"/></g>
<g><path style="opacity:1" fill="#da3f9d" d="M 135.5,234.5 C 140.467,234.584 140.8,235.918 136.5,238.5C 135.571,237.311 135.238,235.978 135.5,234.5 Z"/></g>
<g><path style="opacity:1" fill="#5772b5" d="M 51.5,234.5 C 54.3854,234.194 57.0521,234.527 59.5,235.5C 59.1961,236.15 58.8627,236.817 58.5,237.5C 56.0829,238.072 53.9162,239.072 52,240.5C 51.72,242.672 52.5534,244.339 54.5,245.5C 54.4797,251.794 53.1464,252.127 50.5,246.5C 46.2476,242.159 46.5809,238.159 51.5,234.5 Z"/></g>
<g><path style="opacity:1" fill="#dbc000" d="M 68.5,240.5 C 68.9175,241.222 69.5842,241.722 70.5,242C 69.2899,243.039 68.2899,244.206 67.5,245.5C 67.7989,247.604 67.4656,249.604 66.5,251.5C 63.8333,248.833 61.1667,248.833 58.5,251.5C 57.6922,249.577 57.1922,247.577 57,245.5C 52.0744,241.72 52.9078,239.887 59.5,240C 60.376,238.414 61.376,236.914 62.5,235.5C 63.624,236.914 64.624,238.414 65.5,240C 66.448,240.483 67.448,240.649 68.5,240.5 Z"/></g>
<g><path style="opacity:1" fill="#c8cfd1" d="M 91.5,232.5 C 91.8333,232.5 92.1667,232.5 92.5,232.5C 92.5,233.5 92.5,234.5 92.5,235.5C 99.3724,236.704 103.706,240.704 105.5,247.5C 96.2585,249.926 86.9252,250.093 77.5,248C 76.944,247.617 76.6107,247.117 76.5,246.5C 78.9889,240.014 83.6555,236.014 90.5,234.5C 91.2975,234.043 91.6309,233.376 91.5,232.5 Z"/></g>
<g><path style="opacity:1" fill="#932242" d="M 60.5,233.5 C 61.8333,233.5 63.1667,233.5 64.5,233.5C 64.5982,238.706 67.2649,240.873 72.5,240C 73.056,240.383 73.3893,240.883 73.5,241.5C 71.8828,240.962 70.2161,240.629 68.5,240.5C 67.448,240.649 66.448,240.483 65.5,240C 64.624,238.414 63.624,236.914 62.5,235.5C 61.376,236.914 60.376,238.414 59.5,240C 52.9078,239.887 52.0744,241.72 57,245.5C 57.1922,247.577 57.6922,249.577 58.5,251.5C 61.1667,248.833 63.8333,248.833 66.5,251.5C 67.4656,249.604 67.7989,247.604 67.5,245.5C 68.2719,246.694 69.2719,247.694 70.5,248.5C 70.5,250.167 70.5,251.833 70.5,253.5C 67.6097,253.722 64.943,253.055 62.5,251.5C 61.1401,252.18 59.8068,252.847 58.5,253.5C 57.5,253.5 56.5,253.5 55.5,253.5C 55.8064,250.615 55.4731,247.948 54.5,245.5C 52.5534,244.339 51.72,242.672 52,240.5C 53.9162,239.072 56.0829,238.072 58.5,237.5C 58.8627,236.817 59.1961,236.15 59.5,235.5C 60.3382,235.158 60.6716,234.492 60.5,233.5 Z"/></g>
<g><path style="opacity:1" fill="#87b112" d="M 68.5,240.5 C 70.2161,240.629 71.8828,240.962 73.5,241.5C 73.5,242.167 73.8333,242.5 74.5,242.5C 74.1207,248.787 77.1207,251.787 83.5,251.5C 83.5,252.833 83.5,254.167 83.5,255.5C 83.6716,256.492 83.3382,257.158 82.5,257.5C 81.391,257.443 80.391,257.11 79.5,256.5C 79.719,255.325 79.3857,254.325 78.5,253.5C 75.4685,252.323 72.8019,250.656 70.5,248.5C 69.2719,247.694 68.2719,246.694 67.5,245.5C 68.2899,244.206 69.2899,243.039 70.5,242C 69.5842,241.722 68.9175,241.222 68.5,240.5 Z"/></g>
<g><path style="opacity:1" fill="#474b9e" d="M 143.5,242.5 C 144.674,243.514 145.34,244.847 145.5,246.5C 144.895,249.127 144.395,251.793 144,254.5C 142.933,255.191 141.766,255.691 140.5,256C 139.9,259.436 137.9,261.269 134.5,261.5C 134.167,261.5 133.833,261.5 133.5,261.5C 132.193,260.847 130.86,260.18 129.5,259.5C 126.035,260.036 122.702,260.036 119.5,259.5C 119.389,258.883 119.056,258.383 118.5,258C 115.146,257.545 111.813,257.045 108.5,256.5C 106.978,255.809 105.978,254.642 105.5,253C 107.385,250.842 108.385,248.342 108.5,245.5C 109.911,244.092 111.577,243.092 113.5,242.5C 115.845,243.892 118.178,244.225 120.5,243.5C 123.187,243.664 125.854,243.497 128.5,243C 130.478,240.985 132.312,241.152 134,243.5C 134.956,242.106 136.289,241.439 138,241.5C 139.825,241.943 141.658,242.277 143.5,242.5 Z"/></g>
<g><path style="opacity:0.757" fill="#655256" d="M 145.5,233.5 C 150.437,242.374 155.104,251.374 159.5,260.5C 159.5,261.833 159.5,263.167 159.5,264.5C 154.468,254.434 149.801,244.101 145.5,233.5 Z"/></g>
<g><path style="opacity:1" fill="#9da1cd" d="M 132.5,246.5 C 133.973,247.072 135.307,247.905 136.5,249C 135.285,251.096 134.451,250.929 134,248.5C 133.692,249.308 133.192,249.975 132.5,250.5C 131.374,249.192 131.374,247.858 132.5,246.5 Z"/></g>
<g><path style="opacity:1" fill="#5e82cb" d="M 70.5,248.5 C 72.8019,250.656 75.4685,252.323 78.5,253.5C 79.3857,254.325 79.719,255.325 79.5,256.5C 77.8333,257.167 76.1667,257.833 74.5,258.5C 73.8333,270.833 73.1667,283.167 72.5,295.5C 71.0687,294.22 70.4021,292.553 70.5,290.5C 67.5934,282.097 63.9268,274.097 59.5,266.5C 58.1667,262.5 56.8333,258.5 55.5,254.5C 56.791,254.737 57.791,254.404 58.5,253.5C 59.8068,252.847 61.1401,252.18 62.5,251.5C 64.943,253.055 67.6097,253.722 70.5,253.5C 70.5,251.833 70.5,250.167 70.5,248.5 Z"/></g>
<g><path style="opacity:1" fill="#9a9e98" d="M 74.5,242.5 C 75.1667,243.833 75.8333,245.167 76.5,246.5C 76.6107,247.117 76.944,247.617 77.5,248C 86.9252,250.093 96.2585,249.926 105.5,247.5C 107.097,249.756 106.431,251.09 103.5,251.5C 97.0569,251.356 90.3902,251.356 83.5,251.5C 77.1207,251.787 74.1207,248.787 74.5,242.5 Z"/></g>
<g><path style="opacity:1" fill="#6182c7" d="M 145.5,246.5 C 152.075,260.355 158.575,274.355 165,288.5C 166.415,290.843 166.582,293.177 165.5,295.5C 164.735,296.66 163.735,297.66 162.5,298.5C 161.167,296.833 159.833,295.167 158.5,293.5C 155.968,299.192 153.301,299.526 150.5,294.5C 150.44,293.957 150.107,293.624 149.5,293.5C 148.526,295.743 148.192,298.076 148.5,300.5C 145.025,298.183 141.525,295.85 138,293.5C 136.374,294.289 134.874,295.289 133.5,296.5C 130.453,292.524 127.453,292.524 124.5,296.5C 125.326,297.451 125.492,298.451 125,299.5C 123.89,297.963 122.39,297.297 120.5,297.5C 120.822,291.642 120.489,285.975 119.5,280.5C 119.5,278.833 119.5,277.167 119.5,275.5C 119.5,270.167 119.5,264.833 119.5,259.5C 122.702,260.036 126.035,260.036 129.5,259.5C 130.86,260.18 132.193,260.847 133.5,261.5C 131.087,262.874 129.421,264.874 128.5,267.5C 129.21,270.799 129.543,274.133 129.5,277.5C 124.017,282.734 124.35,287.567 130.5,292C 138.053,292.613 141.386,289.113 140.5,281.5C 142.993,278.161 145.326,274.661 147.5,271C 147.066,268.684 146.066,266.684 144.5,265C 140.972,264.054 137.639,262.887 134.5,261.5C 137.9,261.269 139.9,259.436 140.5,256C 141.766,255.691 142.933,255.191 144,254.5C 144.395,251.793 144.895,249.127 145.5,246.5 Z"/></g>
<g><path style="opacity:1" fill="#769d3f" d="M 103.5,251.5 C 104.322,257.209 102.489,258.543 98,255.5C 97.3292,256.252 96.4959,256.586 95.5,256.5C 95.1667,256.5 94.8333,256.5 94.5,256.5C 91.2288,254.158 87.5622,253.824 83.5,255.5C 83.5,254.167 83.5,252.833 83.5,251.5C 90.3902,251.356 97.0569,251.356 103.5,251.5 Z"/></g>
<g><path style="opacity:1" fill="#6c8dc7" d="M 94.5,256.5 C 91.4395,256.587 88.7728,257.587 86.5,259.5C 84.6455,259.66 83.3121,258.993 82.5,257.5C 83.3382,257.158 83.6716,256.492 83.5,255.5C 87.5622,253.824 91.2288,254.158 94.5,256.5 Z"/></g>
<g><path style="opacity:0.141" fill="#423f73" d="M 54.5,245.5 C 55.4731,247.948 55.8064,250.615 55.5,253.5C 56.5,253.5 57.5,253.5 58.5,253.5C 57.791,254.404 56.791,254.737 55.5,254.5C 56.8333,258.5 58.1667,262.5 59.5,266.5C 55.4348,260.365 52.4348,253.699 50.5,246.5C 53.1464,252.127 54.4797,251.794 54.5,245.5 Z"/></g>
<g><path style="opacity:1" fill="#fcdfbb" d="M 79.5,256.5 C 80.391,257.11 81.391,257.443 82.5,257.5C 83.3121,258.993 84.6455,259.66 86.5,259.5C 88.7728,257.587 91.4395,256.587 94.5,256.5C 94.8333,256.5 95.1667,256.5 95.5,256.5C 95.8333,257.167 96.1667,257.833 96.5,258.5C 101.083,261.355 105.083,260.688 108.5,256.5C 111.813,257.045 115.146,257.545 118.5,258C 119.056,258.383 119.389,258.883 119.5,259.5C 119.5,264.833 119.5,270.167 119.5,275.5C 118.373,274.878 117.373,274.045 116.5,273C 114.888,272.28 113.388,272.446 112,273.5C 111.044,272.106 109.711,271.439 108,271.5C 102.606,272.066 97.2724,272.733 92,273.5C 86.3386,272.817 80.5053,272.151 74.5,271.5C 74.5,267.167 74.5,262.833 74.5,258.5C 76.1667,257.833 77.8333,257.167 79.5,256.5 Z"/></g>
<g><path style="opacity:1" fill="#ff9e1c" d="M 113.5,259.5 C 117.257,259.286 117.924,260.286 115.5,262.5C 118.167,263.833 118.167,265.167 115.5,266.5C 119.11,268.712 118.443,269.712 113.5,269.5C 113.5,266.167 113.5,262.833 113.5,259.5 Z"/></g>
<g><path style="opacity:1" fill="#ffa125" d="M 96.5,258.5 C 100.4,265.296 98.4005,269.296 90.5,270.5C 90.5,268.833 90.5,267.167 90.5,265.5C 84.6761,265.347 84.3428,266.013 89.5,267.5C 87.7642,270.105 85.9308,270.105 84,267.5C 83.6924,268.308 83.1924,268.975 82.5,269.5C 80.8513,268.352 79.3513,267.019 78,265.5C 77.7811,266.938 77.2811,268.271 76.5,269.5C 75.5108,265.893 75.1774,262.226 75.5,258.5C 79.4896,257.616 82.3229,258.949 84,262.5C 86,259.833 88,259.833 90,262.5C 90.49,261.207 90.6567,259.873 90.5,258.5C 92.5,258.5 94.5,258.5 96.5,258.5 Z"/></g>
<g><path style="opacity:1" fill="#ffe5c3" d="M 92.5,260.5 C 94.9477,260.085 96.2811,261.085 96.5,263.5C 96.2718,265.397 95.2718,266.73 93.5,267.5C 92.5258,265.257 92.1924,262.924 92.5,260.5 Z"/></g>
<g><path style="opacity:1" fill="#ffe0b7" d="M 77.5,260.5 C 82.8333,261.5 82.8333,262.5 77.5,263.5C 77.5,262.5 77.5,261.5 77.5,260.5 Z"/></g>
<g><path style="opacity:1" fill="#ff9c13" d="M 104.5,261.5 C 106.847,263.03 107.014,265.03 105,267.5C 101.958,268.986 100.125,267.986 99.5,264.5C 99.8333,263.833 100.167,263.167 100.5,262.5C 102.858,267.839 104.191,267.506 104.5,261.5 Z"/></g>
<g><path style="opacity:1" fill="#ffa226" d="M 108.5,258.5 C 110.346,258.222 111.68,258.889 112.5,260.5C 111.726,261.711 110.893,261.711 110,260.5C 109.333,262.833 109.333,265.167 110,267.5C 110.743,265.355 111.576,265.189 112.5,267C 111.667,269.5 110.167,270 108,268.5C 107.253,265.076 107.42,261.743 108.5,258.5 Z"/></g>
<g><path style="opacity:1" fill="#6986cb" d="M 138.5,278.5 C 136.565,277.85 134.565,277.517 132.5,277.5C 132.33,273.355 132.997,269.355 134.5,265.5C 137.333,266.933 140.333,267.6 143.5,267.5C 142.092,271.313 140.426,274.98 138.5,278.5 Z"/></g>
<g><path style="opacity:1" fill="#785f61" d="M 160.5,266.5 C 162.167,269.167 163.833,271.833 165.5,274.5C 165.5,275.5 165.5,276.5 165.5,277.5C 163.043,274.249 161.376,270.582 160.5,266.5 Z"/></g>
<g><path style="opacity:1" fill="#f3a4ba" d="M 133.5,261.5 C 133.833,261.5 134.167,261.5 134.5,261.5C 137.639,262.887 140.972,264.054 144.5,265C 146.066,266.684 147.066,268.684 147.5,271C 145.326,274.661 142.993,278.161 140.5,281.5C 139.599,280.71 138.932,279.71 138.5,278.5C 140.426,274.98 142.092,271.313 143.5,267.5C 140.333,267.6 137.333,266.933 134.5,265.5C 132.997,269.355 132.33,273.355 132.5,277.5C 131.5,277.5 130.5,277.5 129.5,277.5C 129.543,274.133 129.21,270.799 128.5,267.5C 129.421,264.874 131.087,262.874 133.5,261.5 Z"/></g>
<g><path style="opacity:0.694" fill="#3a366e" d="M 59.5,266.5 C 63.9268,274.097 67.5934,282.097 70.5,290.5C 66.0732,282.903 62.4066,274.903 59.5,266.5 Z"/></g>
<g><path style="opacity:1" fill="#fcb998" d="M 74.5,271.5 C 80.5053,272.151 86.3386,272.817 92,273.5C 97.2724,272.733 102.606,272.066 108,271.5C 109.711,271.439 111.044,272.106 112,273.5C 113.388,272.446 114.888,272.28 116.5,273C 117.373,274.045 118.373,274.878 119.5,275.5C 119.5,277.167 119.5,278.833 119.5,280.5C 119.5,282.5 119.5,284.5 119.5,286.5C 118.711,286.217 118.044,285.717 117.5,285C 113.644,284.823 109.977,284.323 106.5,283.5C 108.911,283.863 110.411,282.863 111,280.5C 112.884,282.576 115.051,282.91 117.5,281.5C 112.306,279.942 112.306,278.942 117.5,278.5C 117.592,274.929 115.926,273.762 112.5,275C 111.296,277.277 109.63,277.777 107.5,276.5C 107.938,275.494 108.604,275.494 109.5,276.5C 110.914,273.41 109.914,272.243 106.5,273C 105.707,274.085 105.04,275.252 104.5,276.5C 105.833,277.833 107.167,279.167 108.5,280.5C 108.167,280.833 107.833,281.167 107.5,281.5C 104.789,279.195 104.122,279.862 105.5,283.5C 104.391,283.557 103.391,283.89 102.5,284.5C 101.751,286.246 100.417,287.246 98.5,287.5C 96.5,286.5 94.5,285.5 92.5,284.5C 90.6031,284.728 89.2697,285.728 88.5,287.5C 86.6293,286.233 84.7959,286.233 83,287.5C 80.3756,285.301 77.5422,284.968 74.5,286.5C 74.5,281.5 74.5,276.5 74.5,271.5 Z"/></g>
<g><path style="opacity:1" fill="#ff8880" d="M 76.5,273.5 C 82.4434,272.281 84.7768,274.447 83.5,280C 84.1007,281.605 85.1007,282.938 86.5,284C 83.9063,284.449 81.9063,283.449 80.5,281C 79.552,280.517 78.552,280.351 77.5,280.5C 76.2201,280.637 75.8868,278.303 76.5,273.5 Z"/></g>
<g><path style="opacity:1" fill="#8b9cc3" d="M 74.5,258.5 C 74.5,262.833 74.5,267.167 74.5,271.5C 74.5,276.5 74.5,281.5 74.5,286.5C 74.5,290.833 74.5,295.167 74.5,299.5C 73.3263,298.486 72.6596,297.153 72.5,295.5C 73.1667,283.167 73.8333,270.833 74.5,258.5 Z"/></g>
<g><path style="opacity:1" fill="#fe857e" d="M 87.5,274.5 C 91.5,273.833 93.1667,275.5 92.5,279.5C 87.9593,279.331 87.626,279.998 91.5,281.5C 89.9255,282.631 88.2588,282.798 86.5,282C 85.0825,279.257 85.4159,276.757 87.5,274.5 Z"/></g>
<g><path style="opacity:1" fill="#e9a375" d="M 165.5,274.5 C 174.295,276.82 182.962,279.654 191.5,283C 188.388,294.062 185.721,305.229 183.5,316.5C 182.662,316.158 182.328,315.492 182.5,314.5C 182.539,311.911 181.539,309.911 179.5,308.5C 178.069,307.22 177.402,305.553 177.5,303.5C 176.29,298.749 174.29,294.416 171.5,290.5C 170.29,285.749 168.29,281.416 165.5,277.5C 165.5,276.5 165.5,275.5 165.5,274.5 Z"/></g>
<g><path style="opacity:1" fill="#eba475" d="M 398.5,273.5 C 402.246,281.331 405.746,289.331 409,297.5C 412.783,308.634 412.783,319.634 409,330.5C 402.624,339.71 394.791,347.376 385.5,353.5C 381.809,354.762 378.309,356.429 375,358.5C 371.522,361.978 368.022,365.478 364.5,369C 361.048,371.393 357.381,373.226 353.5,374.5C 347.335,375.439 341.335,375.439 335.5,374.5C 335.953,373.542 336.619,372.708 337.5,372C 337.167,371.833 336.833,371.667 336.5,371.5C 332.489,374.403 328.156,375.403 323.5,374.5C 322.212,371.572 322.879,369.072 325.5,367C 322.474,367.564 319.474,368.564 316.5,370C 311.917,370.934 310.417,369.1 312,364.5C 313.5,363 315,361.5 316.5,360C 312.908,360.502 309.241,360.502 305.5,360C 304.446,358.612 304.28,357.112 305,355.5C 306.045,354.627 306.878,353.627 307.5,352.5C 309.964,350.43 312.631,348.596 315.5,347C 332.715,340.945 348.049,331.778 361.5,319.5C 367.037,313.148 368.87,305.815 367,297.5C 365.166,293.04 364.666,288.54 365.5,284C 376.343,280.039 387.343,276.539 398.5,273.5 Z"/></g>
<g><path style="opacity:1" fill="#fe827d" d="M 102.5,284.5 C 94.0161,285.644 91.3494,281.978 94.5,273.5C 95.2482,276.497 95.9149,279.497 96.5,282.5C 99.9819,283.823 101.815,282.49 102,278.5C 102.495,280.473 102.662,282.473 102.5,284.5 Z"/></g>
<g><path style="opacity:1" fill="#e2d03f" d="M 129.5,277.5 C 130.5,277.5 131.5,277.5 132.5,277.5C 134.565,277.517 136.565,277.85 138.5,278.5C 138.932,279.71 139.599,280.71 140.5,281.5C 141.386,289.113 138.053,292.613 130.5,292C 124.35,287.567 124.017,282.734 129.5,277.5 Z"/></g>
<g><path style="opacity:1" fill="#f8f8ea" d="M 130.5,278.5 C 134.273,277.822 137.106,279.156 139,282.5C 139.917,287.327 137.917,289.994 133,290.5C 127.996,289.501 126.33,286.501 128,281.5C 129.045,280.627 129.878,279.627 130.5,278.5 Z"/></g>
<g><path style="opacity:1" fill="#fe837e" d="M 106.5,283.5 C 106.167,283.5 105.833,283.5 105.5,283.5C 104.122,279.862 104.789,279.195 107.5,281.5C 107.833,281.167 108.167,280.833 108.5,280.5C 107.167,279.167 105.833,277.833 104.5,276.5C 105.04,275.252 105.707,274.085 106.5,273C 109.914,272.243 110.914,273.41 109.5,276.5C 108.604,275.494 107.938,275.494 107.5,276.5C 109.63,277.777 111.296,277.277 112.5,275C 115.926,273.762 117.592,274.929 117.5,278.5C 112.306,278.942 112.306,279.942 117.5,281.5C 115.051,282.91 112.884,282.576 111,280.5C 110.411,282.863 108.911,283.863 106.5,283.5 Z"/></g>
<g><path style="opacity:1" fill="#f6dc38" d="M 132.5,282.5 C 133.922,282.75 134.922,283.583 135.5,285C 134.383,286.892 132.716,287.725 130.5,287.5C 130.365,285.446 131.032,283.779 132.5,282.5 Z"/></g>
<g><path style="opacity:1" fill="#7a5a5e" d="M 165.5,277.5 C 168.29,281.416 170.29,285.749 171.5,290.5C 168.71,286.584 166.71,282.251 165.5,277.5 Z"/></g>
<g><path style="opacity:1" fill="#a8dcde" d="M 119.5,280.5 C 120.489,285.975 120.822,291.642 120.5,297.5C 122.39,297.297 123.89,297.963 125,299.5C 125.492,298.451 125.326,297.451 124.5,296.5C 127.453,292.524 130.453,292.524 133.5,296.5C 134.874,295.289 136.374,294.289 138,293.5C 141.525,295.85 145.025,298.183 148.5,300.5C 148.5,301.167 148.833,301.5 149.5,301.5C 148.962,303.117 148.629,304.784 148.5,306.5C 147.957,306.56 147.624,306.893 147.5,307.5C 148.325,308.386 149.325,308.719 150.5,308.5C 151.209,309.404 152.209,309.737 153.5,309.5C 153.643,311.262 153.309,312.929 152.5,314.5C 155.028,315.816 155.028,316.983 152.5,318C 153.357,318.689 154.023,319.522 154.5,320.5C 153.209,321.527 153.209,322.527 154.5,323.5C 153.193,324.802 153.193,326.135 154.5,327.5C 154.043,328.298 153.376,328.631 152.5,328.5C 151.849,327.909 151.182,327.243 150.5,326.5C 150.089,327.262 149.923,328.262 150,329.5C 148.275,328.536 146.441,327.869 144.5,327.5C 144.83,323.839 146.163,320.672 148.5,318C 146.57,313.492 144.237,309.158 141.5,305C 132.802,300.265 125.968,302.099 121,310.5C 120.727,313.393 119.893,316.06 118.5,318.5C 119.986,321.47 121.32,324.47 122.5,327.5C 120.94,327.519 119.44,327.852 118,328.5C 116.349,327.258 114.515,326.424 112.5,326C 113.728,324.51 113.728,323.01 112.5,321.5C 113.506,321.062 113.506,320.396 112.5,319.5C 114.603,318.02 114.603,316.853 112.5,316C 113.308,315.692 113.975,315.192 114.5,314.5C 112.004,311.767 112.17,309.1 115,306.5C 115.718,307.451 116.551,307.617 117.5,307C 114.939,304.844 114.939,302.677 117.5,300.5C 119.436,296.285 120.103,291.619 119.5,286.5C 119.5,284.5 119.5,282.5 119.5,280.5 Z"/></g>
<g><path style="opacity:1" fill="#76575d" d="M 171.5,290.5 C 174.29,294.416 176.29,298.749 177.5,303.5C 174.71,299.584 172.71,295.251 171.5,290.5 Z"/></g>
<g><path style="opacity:1" fill="#d9be07" d="M 165.5,295.5 C 166.468,297.607 166.802,299.941 166.5,302.5C 167.234,303.708 167.567,305.041 167.5,306.5C 161.167,306.5 154.833,306.5 148.5,306.5C 148.629,304.784 148.962,303.117 149.5,301.5C 149.198,298.941 149.532,296.607 150.5,294.5C 153.301,299.526 155.968,299.192 158.5,293.5C 159.833,295.167 161.167,296.833 162.5,298.5C 163.735,297.66 164.735,296.66 165.5,295.5 Z"/></g>
<g><path style="opacity:1" fill="#c0dabb" d="M 105.5,283.5 C 105.833,283.5 106.167,283.5 106.5,283.5C 109.977,284.323 113.644,284.823 117.5,285C 118.044,285.717 118.711,286.217 119.5,286.5C 120.103,291.619 119.436,296.285 117.5,300.5C 109.236,300.34 101.069,300.34 93,300.5C 90.9211,299.597 88.7544,298.931 86.5,298.5C 82.6426,300.527 78.6426,300.861 74.5,299.5C 74.5,295.167 74.5,290.833 74.5,286.5C 77.5422,284.968 80.3756,285.301 83,287.5C 84.7959,286.233 86.6293,286.233 88.5,287.5C 89.2697,285.728 90.6031,284.728 92.5,284.5C 94.5,285.5 96.5,286.5 98.5,287.5C 100.417,287.246 101.751,286.246 102.5,284.5C 103.391,283.89 104.391,283.557 105.5,283.5 Z"/></g>
<g><path style="opacity:1" fill="#959e63" d="M 95.5,294.5 C 95.7088,288.739 96.5422,288.406 98,293.5C 98.49,292.207 98.6567,290.873 98.5,289.5C 99.552,289.649 100.552,289.483 101.5,289C 103.192,284.97 105.192,284.636 107.5,288C 106.576,289.811 105.743,289.645 105,287.5C 103.287,290.015 103.12,292.682 104.5,295.5C 106.57,291.59 107.404,291.923 107,296.5C 105.062,297.86 103.396,297.527 102,295.5C 101.51,296.793 101.343,298.127 101.5,299.5C 100.5,299.5 99.5,299.5 98.5,299.5C 98.7593,297.011 97.7593,295.344 95.5,294.5 Z"/></g>
<g><path style="opacity:1" fill="#8d9354" d="M 95.5,294.5 C 95.8092,298.343 94.3092,299.676 91,298.5C 89.9914,296.975 89.4914,295.308 89.5,293.5C 87.8008,293.34 86.1341,293.506 84.5,294C 89.623,295.753 89.623,296.42 84.5,296C 83.1068,294.829 82.2735,293.329 82,291.5C 80.6718,293.022 80.8384,294.689 82.5,296.5C 81.9984,297.521 81.3317,297.688 80.5,297C 78.2659,292.446 76.9325,292.946 76.5,298.5C 75.5108,294.893 75.1774,291.226 75.5,287.5C 78.1569,287.162 80.4902,287.829 82.5,289.5C 84.9686,287.993 87.1353,288.327 89,290.5C 89.687,287.574 91.5203,286.241 94.5,286.5C 93.0991,287.788 92.0991,289.788 91.5,292.5C 91.8333,293.833 92.1667,295.167 92.5,296.5C 93.2652,295.388 94.2652,294.721 95.5,294.5 Z"/></g>
<g><path style="opacity:1" fill="#8c9151" d="M 113.5,286.5 C 117.151,286.162 118.817,287.828 118.5,291.5C 112.676,291.347 112.343,292.013 117.5,293.5C 115.926,294.631 114.259,294.798 112.5,294C 111.083,291.257 111.416,288.757 113.5,286.5 Z"/></g>
<g><path style="opacity:1" fill="#8a8e4d" d="M 108.5,286.5 C 110.402,289.337 111.069,292.671 110.5,296.5C 112.924,296.192 115.257,296.526 117.5,297.5C 114.572,298.484 111.572,298.817 108.5,298.5C 108.5,294.5 108.5,290.5 108.5,286.5 Z"/></g>
<g><path style="opacity:1" fill="#5d82c8" d="M 198.5,385.5 C 198.5,378.167 198.5,370.833 198.5,363.5C 202.056,369.463 205.056,375.797 207.5,382.5C 207.552,384.903 207.219,387.236 206.5,389.5C 202.46,391.117 198.127,391.95 193.5,392C 171.845,393.73 150.178,395.23 128.5,396.5C 128.5,398.833 128.5,401.167 128.5,403.5C 127.532,401.393 127.198,399.059 127.5,396.5C 124.813,396.664 122.146,396.497 119.5,396C 118.944,395.617 118.611,395.117 118.5,394.5C 110.677,376.191 102.343,358.191 93.5,340.5C 86.6106,327.2 80.2773,313.534 74.5,299.5C 78.6426,300.861 82.6426,300.527 86.5,298.5C 88.7544,298.931 90.9211,299.597 93,300.5C 101.069,300.34 109.236,300.34 117.5,300.5C 114.939,302.677 114.939,304.844 117.5,307C 116.551,307.617 115.718,307.451 115,306.5C 112.17,309.1 112.004,311.767 114.5,314.5C 113.975,315.192 113.308,315.692 112.5,316C 114.603,316.853 114.603,318.02 112.5,319.5C 111.833,317.5 110.5,316.167 108.5,315.5C 105.549,315.287 102.882,315.954 100.5,317.5C 97.9379,313.67 95.2713,313.67 92.5,317.5C 96.0944,318.875 97.4277,321.542 96.5,325.5C 101.862,324.294 107.195,322.961 112.5,321.5C 113.728,323.01 113.728,324.51 112.5,326C 114.515,326.424 116.349,327.258 118,328.5C 119.44,327.852 120.94,327.519 122.5,327.5C 125.387,330.026 128.887,331.026 133,330.5C 137.314,330.973 141.147,329.973 144.5,327.5C 146.441,327.869 148.275,328.536 150,329.5C 149.923,328.262 150.089,327.262 150.5,326.5C 151.182,327.243 151.849,327.909 152.5,328.5C 151.699,330.042 151.366,331.708 151.5,333.5C 152.167,335.5 152.833,337.5 153.5,339.5C 151.801,339.34 150.134,339.506 148.5,340C 146.134,342.275 143.634,344.441 141,346.5C 140.187,348.436 139.687,350.436 139.5,352.5C 140.5,352.5 141.5,352.5 142.5,352.5C 144.047,348.782 146.213,345.449 149,342.5C 150.414,343.413 151.914,343.413 153.5,342.5C 157.012,343.23 160.346,344.563 163.5,346.5C 164.73,348.297 165.396,350.297 165.5,352.5C 166.5,352.5 167.5,352.5 168.5,352.5C 168.6,349.892 167.933,347.558 166.5,345.5C 171.178,344.494 174.844,341.994 177.5,338C 175.859,336.871 174.859,335.371 174.5,333.5C 179.684,329.124 179.684,324.791 174.5,320.5C 169.863,316.447 164.863,315.78 159.5,318.5C 156.676,318.989 155.343,320.656 155.5,323.5C 155.167,323.5 154.833,323.5 154.5,323.5C 153.209,322.527 153.209,321.527 154.5,320.5C 154.023,319.522 153.357,318.689 152.5,318C 155.028,316.983 155.028,315.816 152.5,314.5C 153.309,312.929 153.643,311.262 153.5,309.5C 152.209,309.737 151.209,309.404 150.5,308.5C 156.537,308.829 162.537,308.496 168.5,307.5C 168.376,306.893 168.043,306.56 167.5,306.5C 167.567,305.041 167.234,303.708 166.5,302.5C 167.314,300.369 167.814,298.036 168,295.5C 178.359,316.542 187.859,337.876 196.5,359.5C 187.167,359.5 177.833,359.5 168.5,359.5C 168.5,368.5 168.5,377.5 168.5,386.5C 178.681,386.827 188.681,386.494 198.5,385.5 Z"/></g>
<g><path style="opacity:1" fill="#585219" d="M 150.5,294.5 C 149.532,296.607 149.198,298.941 149.5,301.5C 148.833,301.5 148.5,301.167 148.5,300.5C 148.192,298.076 148.526,295.743 149.5,293.5C 150.107,293.624 150.44,293.957 150.5,294.5 Z"/></g>
<g><path style="opacity:1" fill="#b9284c" d="M 156.5,301.5 C 157.5,301.5 158.5,301.5 159.5,301.5C 158.754,305.31 157.754,305.31 156.5,301.5 Z"/></g>
<g><path style="opacity:1" fill="#f4dc7a" d="M 144.5,327.5 C 141.147,329.973 137.314,330.973 133,330.5C 128.887,331.026 125.387,330.026 122.5,327.5C 121.32,324.47 119.986,321.47 118.5,318.5C 119.893,316.06 120.727,313.393 121,310.5C 125.968,302.099 132.802,300.265 141.5,305C 144.237,309.158 146.57,313.492 148.5,318C 146.163,320.672 144.83,323.839 144.5,327.5 Z"/></g>
<g><path style="opacity:1" fill="#9c1b49" d="M 148.5,306.5 C 154.833,306.5 161.167,306.5 167.5,306.5C 168.043,306.56 168.376,306.893 168.5,307.5C 162.537,308.496 156.537,308.829 150.5,308.5C 149.325,308.719 148.325,308.386 147.5,307.5C 147.624,306.893 147.957,306.56 148.5,306.5 Z"/></g>
<g><path style="opacity:1" fill="#73575c" d="M 179.5,308.5 C 181.539,309.911 182.539,311.911 182.5,314.5C 180.992,312.819 179.992,310.819 179.5,308.5 Z"/></g>
<g><path style="opacity:1" fill="#2e3443" d="M 127.5,313.5 C 129.465,313.948 129.798,314.948 128.5,316.5C 127.614,315.675 127.281,314.675 127.5,313.5 Z"/></g>
<g><path style="opacity:1" fill="#2e3443" d="M 137.5,313.5 C 139.048,313.821 139.715,314.821 139.5,316.5C 136.752,316.598 136.086,315.598 137.5,313.5 Z"/></g>
<g><path style="opacity:1" fill="#2960af" d="M 174.5,320.5 C 173.127,320.343 171.793,320.51 170.5,321C 168.376,323.988 165.709,324.822 162.5,323.5C 162.634,325.292 162.301,326.958 161.5,328.5C 159.926,330.102 159.259,332.102 159.5,334.5C 160.833,334.5 162.167,334.5 163.5,334.5C 163.215,336.288 163.548,337.955 164.5,339.5C 165.711,337.578 167.044,335.745 168.5,334C 167.376,333.751 166.376,333.251 165.5,332.5C 165.667,332.167 165.833,331.833 166,331.5C 169.14,331.594 171.973,332.261 174.5,333.5C 174.859,335.371 175.859,336.871 177.5,338C 174.844,341.994 171.178,344.494 166.5,345.5C 165.209,345.263 164.209,345.596 163.5,346.5C 160.346,344.563 157.012,343.23 153.5,342.5C 154.552,342.649 155.552,342.483 156.5,342C 155.619,341.292 154.953,340.458 154.5,339.5C 156.104,338.713 156.771,337.38 156.5,335.5C 154.678,335.169 153.011,334.502 151.5,333.5C 151.366,331.708 151.699,330.042 152.5,328.5C 153.376,328.631 154.043,328.298 154.5,327.5C 153.193,326.135 153.193,324.802 154.5,323.5C 154.833,323.5 155.167,323.5 155.5,323.5C 156.12,325.977 157.12,325.977 158.5,323.5C 159.452,321.955 159.785,320.288 159.5,318.5C 164.863,315.78 169.863,316.447 174.5,320.5 Z"/></g>
<g><path style="opacity:1" fill="#50a456" d="M 159.5,318.5 C 159.785,320.288 159.452,321.955 158.5,323.5C 157.12,325.977 156.12,325.977 155.5,323.5C 155.343,320.656 156.676,318.989 159.5,318.5 Z"/></g>
<g><path style="opacity:1" fill="#b2ddd5" d="M 130.5,320.5 C 133.908,319.828 136.575,320.828 138.5,323.5C 138.291,324.086 137.957,324.586 137.5,325C 134.5,325.667 131.5,325.667 128.5,325C 128.043,324.586 127.709,324.086 127.5,323.5C 128.34,322.265 129.34,321.265 130.5,320.5 Z"/></g>
<g><path style="opacity:1" fill="#50a84d" d="M 174.5,320.5 C 179.684,324.791 179.684,329.124 174.5,333.5C 171.973,332.261 169.14,331.594 166,331.5C 165.833,331.833 165.667,332.167 165.5,332.5C 166.376,333.251 167.376,333.751 168.5,334C 167.044,335.745 165.711,337.578 164.5,339.5C 163.548,337.955 163.215,336.288 163.5,334.5C 162.167,334.5 160.833,334.5 159.5,334.5C 159.259,332.102 159.926,330.102 161.5,328.5C 162.301,326.958 162.634,325.292 162.5,323.5C 165.709,324.822 168.376,323.988 170.5,321C 171.793,320.51 173.127,320.343 174.5,320.5 Z"/></g>
<g><path style="opacity:1" fill="#e56036" d="M 100.5,317.5 C 101.474,321.009 103.807,322.176 107.5,321C 108.406,319.301 108.739,317.467 108.5,315.5C 110.5,316.167 111.833,317.5 112.5,319.5C 113.506,320.396 113.506,321.062 112.5,321.5C 107.195,322.961 101.862,324.294 96.5,325.5C 97.4277,321.542 96.0944,318.875 92.5,317.5C 95.2713,313.67 97.9379,313.67 100.5,317.5 Z"/></g>
<g><path style="opacity:1" fill="#39bcd8" d="M 108.5,315.5 C 108.739,317.467 108.406,319.301 107.5,321C 103.807,322.176 101.474,321.009 100.5,317.5C 102.882,315.954 105.549,315.287 108.5,315.5 Z"/></g>
<g><path style="opacity:1" fill="#66525c" d="M 185.5,321.5 C 187.104,322.287 187.771,323.62 187.5,325.5C 186.326,324.486 185.66,323.153 185.5,321.5 Z"/></g>
<g><path style="opacity:1" fill="#2f6e9e" d="M 161.5,328.5 C 162.922,328.709 164.255,329.209 165.5,330C 163.648,330.773 162.314,330.273 161.5,328.5 Z"/></g>
<g><path style="opacity:1" fill="#51a458" d="M 151.5,333.5 C 153.011,334.502 154.678,335.169 156.5,335.5C 156.771,337.38 156.104,338.713 154.5,339.5C 154.167,339.5 153.833,339.5 153.5,339.5C 152.833,337.5 152.167,335.5 151.5,333.5 Z"/></g>
<g><path style="opacity:1" fill="#704f7a" d="M 117.5,332.5 C 119.858,332.361 122.358,332.694 125,333.5C 127.803,335.581 130.303,337.914 132.5,340.5C 131.833,340.833 131.167,341.167 130.5,341.5C 126.535,336.878 121.535,335.378 115.5,337C 113.147,338.666 110.814,339.999 108.5,341C 108.167,340.667 107.833,340.333 107.5,340C 109.658,335.771 112.991,333.271 117.5,332.5 Z"/></g>
<g><path style="opacity:1" fill="#644c74" d="M 153.5,339.5 C 153.833,339.5 154.167,339.5 154.5,339.5C 154.953,340.458 155.619,341.292 156.5,342C 155.552,342.483 154.552,342.649 153.5,342.5C 151.914,343.413 150.414,343.413 149,342.5C 146.213,345.449 144.047,348.782 142.5,352.5C 141.5,352.5 140.5,352.5 139.5,352.5C 139.687,350.436 140.187,348.436 141,346.5C 143.634,344.441 146.134,342.275 148.5,340C 150.134,339.506 151.801,339.34 153.5,339.5 Z"/></g>
<g><path style="opacity:1" fill="#ee8dd3" d="M 162.5,353.5 C 161.662,353.842 161.328,354.508 161.5,355.5C 159.498,358.334 156.998,360.667 154,362.5C 152.729,361.117 151.229,360.117 149.5,359.5C 149.5,358.833 149.167,358.5 148.5,358.5C 146.321,355.224 145.988,351.724 147.5,348C 151.525,348.461 155.525,348.461 159.5,348C 161.607,349.264 162.607,351.097 162.5,353.5 Z"/></g>
<g><path style="opacity:1" fill="#654164" d="M 166.5,345.5 C 167.933,347.558 168.6,349.892 168.5,352.5C 167.5,352.5 166.5,352.5 165.5,352.5C 165.396,350.297 164.73,348.297 163.5,346.5C 164.209,345.596 165.209,345.263 166.5,345.5 Z"/></g>
<g><path style="opacity:1" fill="#cd84bf" d="M 121.5,342.5 C 123.5,342.5 125.5,342.5 127.5,342.5C 127.67,343.822 127.337,344.989 126.5,346C 127.701,346.903 128.535,348.069 129,349.5C 129.811,348.04 130.645,347.707 131.5,348.5C 129.277,353.229 125.777,354.563 121,352.5C 120.828,349.174 120.995,345.841 121.5,342.5 Z"/></g>
<g><path style="opacity:1" fill="#3c3f41" d="M 198.5,349.5 C 199.267,350.172 199.934,351.005 200.5,352C 236.165,352.5 271.832,352.667 307.5,352.5C 306.878,353.627 306.045,354.627 305,355.5C 304.28,357.112 304.446,358.612 305.5,360C 309.241,360.502 312.908,360.502 316.5,360C 315,361.5 313.5,363 312,364.5C 310.417,369.1 311.917,370.934 316.5,370C 319.474,368.564 322.474,367.564 325.5,367C 322.879,369.072 322.212,371.572 323.5,374.5C 328.156,375.403 332.489,374.403 336.5,371.5C 336.833,371.667 337.167,371.833 337.5,372C 336.619,372.708 335.953,373.542 335.5,374.5C 334.596,375.209 334.263,376.209 334.5,377.5C 296.831,380.111 259.164,382.778 221.5,385.5C 221.5,386.833 221.5,388.167 221.5,389.5C 220.596,388.791 220.263,387.791 220.5,386.5C 216.818,386.335 213.152,386.501 209.5,387C 208.627,388.045 207.627,388.878 206.5,389.5C 207.219,387.236 207.552,384.903 207.5,382.5C 208.268,383.263 208.768,384.263 209,385.5C 211.303,383.662 211.969,381.328 211,378.5C 206.798,368.771 202.631,359.104 198.5,349.5 Z"/></g>
<g><path style="opacity:1" fill="#3d3f40" d="M 385.5,353.5 C 416.603,367.042 427.103,390.042 417,422.5C 409.023,438.634 396.19,448.634 378.5,452.5C 380.675,449.351 381.342,446.017 380.5,442.5C 406.306,434.517 415.472,417.517 408,391.5C 399.347,378.338 387.014,372.005 371,372.5C 366.404,372.609 361.904,373.275 357.5,374.5C 357.411,377.709 357.744,380.875 358.5,384C 358.387,386.399 357.387,388.232 355.5,389.5C 356.383,384.897 356.717,380.23 356.5,375.5C 355.5,375.5 354.5,375.5 353.5,375.5C 353.5,375.167 353.5,374.833 353.5,374.5C 357.381,373.226 361.048,371.393 364.5,369C 368.022,365.478 371.522,361.978 375,358.5C 378.309,356.429 381.809,354.762 385.5,353.5 Z"/></g>
<g><path style="opacity:1" fill="#b4b2b5" d="M 145.5,358.5 C 144.508,358.328 143.842,358.662 143.5,359.5C 139.259,356.159 139.925,354.159 145.5,353.5C 145.5,355.167 145.5,356.833 145.5,358.5 Z"/></g>
<g><path style="opacity:1" fill="#d6b822" d="M 162.5,353.5 C 165.084,354.048 166.084,355.715 165.5,358.5C 164.833,357.833 164.167,357.167 163.5,356.5C 162.833,356.167 162.167,355.833 161.5,355.5C 161.328,354.508 161.662,353.842 162.5,353.5 Z"/></g>
<g><path style="opacity:1" fill="#d3b625" d="M 145.5,358.5 C 146.5,358.5 147.5,358.5 148.5,358.5C 149.167,358.5 149.5,358.833 149.5,359.5C 147.406,361.994 145.406,361.994 143.5,359.5C 143.842,358.662 144.508,358.328 145.5,358.5 Z"/></g>
<g><path style="opacity:1" fill="#dad5d3" d="M 163.5,356.5 C 164.167,357.167 164.833,357.833 165.5,358.5C 165.5,359.833 165.5,361.167 165.5,362.5C 163.712,362.785 162.045,362.452 160.5,361.5C 161.554,359.799 162.554,358.132 163.5,356.5 Z"/></g>
<g><path style="opacity:1" fill="#edc11c" d="M 198.5,363.5 C 198.5,370.833 198.5,378.167 198.5,385.5C 188.833,385.5 179.167,385.5 169.5,385.5C 169.5,377.167 169.5,368.833 169.5,360.5C 178.173,360.334 186.84,360.5 195.5,361C 194.289,361.893 194.289,362.726 195.5,363.5C 197.421,358.508 198.421,358.508 198.5,363.5 Z"/></g>
<g><path style="opacity:1" fill="#fff6cc" d="M 170.5,361.5 C 172.337,361.639 172.67,362.306 171.5,363.5C 170.702,363.043 170.369,362.376 170.5,361.5 Z"/></g>
<g><path style="opacity:1" fill="#f0eaea" d="M 139.5,367.5 C 137.412,366.061 135.079,365.394 132.5,365.5C 132.5,366.5 132.5,367.5 132.5,368.5C 130.167,368.5 127.833,368.5 125.5,368.5C 125.5,366.5 124.5,365.5 122.5,365.5C 128.837,361.058 134.503,361.725 139.5,367.5 Z"/></g>
<g><path style="opacity:1" fill="#11090a" d="M 177.5,363.5 C 177.343,364.873 177.51,366.207 178,367.5C 179.948,368.109 181.782,368.776 183.5,369.5C 178.59,369.576 177.257,371.91 179.5,376.5C 177.623,377.659 177.123,379.326 178,381.5C 180.041,382.423 182.208,382.756 184.5,382.5C 179.015,384.583 174.848,382.917 172,377.5C 169.898,371.032 171.732,366.365 177.5,363.5 Z"/></g>
<g><path style="opacity:1" fill="#9641ca" d="M 184.5,363.5 C 184.918,364.222 185.584,364.722 186.5,365C 185.601,366.652 184.601,368.152 183.5,369.5C 181.782,368.776 179.948,368.109 178,367.5C 177.51,366.207 177.343,364.873 177.5,363.5C 179.833,362.167 182.167,362.167 184.5,363.5 Z"/></g>
<g><path style="opacity:1" fill="#fa6587" d="M 139.5,367.5 C 139.5,368.833 139.5,370.167 139.5,371.5C 137.833,371.5 136.167,371.5 134.5,371.5C 134.068,370.29 133.401,369.29 132.5,368.5C 132.5,367.5 132.5,366.5 132.5,365.5C 135.079,365.394 137.412,366.061 139.5,367.5 Z"/></g>
<g><path style="opacity:1" fill="#170f0e" d="M 184.5,363.5 C 189.594,364.488 191.927,367.655 191.5,373C 191.927,378.345 189.594,381.512 184.5,382.5C 185.412,381.262 185.579,379.928 185,378.5C 183.052,377.891 181.218,377.224 179.5,376.5C 184.41,376.424 185.743,374.09 183.5,369.5C 184.601,368.152 185.601,366.652 186.5,365C 185.584,364.722 184.918,364.222 184.5,363.5 Z"/></g>
<g><path style="opacity:1" fill="#f86485" d="M 122.5,365.5 C 124.5,365.5 125.5,366.5 125.5,368.5C 124.833,369.5 124.167,370.5 123.5,371.5C 122.417,371.539 121.417,371.873 120.5,372.5C 119.614,371.675 119.281,370.675 119.5,369.5C 119.738,367.596 120.738,366.262 122.5,365.5 Z"/></g>
<g><path style="opacity:1" fill="#ffe999" d="M 125.5,368.5 C 127.833,368.5 130.167,368.5 132.5,368.5C 133.401,369.29 134.068,370.29 134.5,371.5C 130.833,371.5 127.167,371.5 123.5,371.5C 124.167,370.5 124.833,369.5 125.5,368.5 Z"/></g>
<g><path style="opacity:1" fill="#d54f34" d="M 183.5,369.5 C 185.743,374.09 184.41,376.424 179.5,376.5C 177.257,371.91 178.59,369.576 183.5,369.5 Z"/></g>
<g><path style="opacity:1" fill="#f4f5f3" d="M 139.5,367.5 C 144.056,374.433 143.056,380.599 136.5,386C 125.561,389.861 119.227,386.028 117.5,374.5C 117.436,372.443 118.102,370.777 119.5,369.5C 119.281,370.675 119.614,371.675 120.5,372.5C 121.417,371.873 122.417,371.539 123.5,371.5C 127.167,371.5 130.833,371.5 134.5,371.5C 136.167,371.5 137.833,371.5 139.5,371.5C 139.5,370.167 139.5,368.833 139.5,367.5 Z"/></g>
<g><path style="opacity:1" fill="#eba475" d="M 380.5,442.5 C 365.577,446.469 350.577,450.469 335.5,454.5C 325.616,457.627 315.616,460.46 305.5,463C 302.274,468.723 299.274,474.557 296.5,480.5C 287.695,478.965 279.028,476.799 270.5,474C 267.779,473.398 265.113,473.565 262.5,474.5C 255.101,457.87 246.768,441.703 237.5,426C 230.109,428.188 222.776,430.688 215.5,433.5C 204.162,433.333 192.828,433.5 181.5,434C 179.264,434.734 177.931,436.234 177.5,438.5C 178.839,442.185 180.172,445.851 181.5,449.5C 158.69,444.698 147.357,430.698 147.5,407.5C 155.028,407.374 162.361,406.707 169.5,405.5C 187.202,404.553 204.868,403.219 222.5,401.5C 230.95,401.602 238.617,400.936 245.5,399.5C 245.842,398.662 246.508,398.328 247.5,398.5C 255.507,402.248 263.674,405.915 272,409.5C 280.59,405.787 289.09,401.954 297.5,398C 302.649,396.084 307.983,395.084 313.5,395C 312.207,394.51 310.873,394.343 309.5,394.5C 310.919,393.549 312.585,393.216 314.5,393.5C 316.304,394.162 318.304,394.495 320.5,394.5C 330.5,393.667 340.5,392.833 350.5,392C 351.737,391.768 352.737,391.268 353.5,390.5C 353.842,389.662 354.508,389.328 355.5,389.5C 357.387,388.232 358.387,386.399 358.5,384C 357.744,380.875 357.411,377.709 357.5,374.5C 361.904,373.275 366.404,372.609 371,372.5C 387.014,372.005 399.347,378.338 408,391.5C 415.472,417.517 406.306,434.517 380.5,442.5 Z"/></g>
<g><path style="opacity:1" fill="#fde971" d="M 132.5,376.5 C 130.5,376.5 128.5,376.5 126.5,376.5C 125.262,376.19 125.262,375.69 126.5,375C 125.376,374.751 124.376,374.251 123.5,373.5C 126.784,372.343 130.118,372.176 133.5,373C 132.167,373.333 130.833,373.667 129.5,374C 131.119,374.236 132.119,375.069 132.5,376.5 Z"/></g>
<g><path style="opacity:1" fill="#845b5d" d="M 335.5,374.5 C 341.335,375.439 347.335,375.439 353.5,374.5C 353.5,374.833 353.5,375.167 353.5,375.5C 347.334,376.398 341,377.064 334.5,377.5C 334.263,376.209 334.596,375.209 335.5,374.5 Z"/></g>
<g><path style="opacity:1" fill="#b49207" d="M 187.5,375.5 C 190.012,376.216 190.012,377.216 187.5,378.5C 186.438,377.575 186.438,376.575 187.5,375.5 Z"/></g>
<g><path style="opacity:1" fill="#f09f60" d="M 353.5,375.5 C 354.5,375.5 355.5,375.5 356.5,375.5C 356.717,380.23 356.383,384.897 355.5,389.5C 354.508,389.328 353.842,389.662 353.5,390.5C 340.512,391.642 327.512,392.642 314.5,393.5C 312.585,393.216 310.919,393.549 309.5,394.5C 288.831,395.833 268.164,397.167 247.5,398.5C 246.508,398.328 245.842,398.662 245.5,399.5C 240.134,399.323 234.8,399.656 229.5,400.5C 227.307,400.281 225.307,399.615 223.5,398.5C 221.956,395.752 221.29,392.752 221.5,389.5C 221.5,388.167 221.5,386.833 221.5,385.5C 259.164,382.778 296.831,380.111 334.5,377.5C 341,377.064 347.334,376.398 353.5,375.5 Z"/></g>
<g><path style="opacity:0.2" fill="#3c3874" d="M 93.5,340.5 C 102.343,358.191 110.677,376.191 118.5,394.5C 117.833,394.167 117.167,393.833 116.5,393.5C 108.552,375.939 100.885,358.273 93.5,340.5 Z"/></g>
<g><path style="opacity:1" fill="#fa6a8a" d="M 126.5,376.5 C 128.5,376.5 130.5,376.5 132.5,376.5C 134.627,380.686 133.461,383.353 129,384.5C 125.478,382.751 124.645,380.085 126.5,376.5 Z"/></g>
<g><path style="opacity:1" fill="#ac48f1" d="M 179.5,376.5 C 181.218,377.224 183.052,377.891 185,378.5C 185.579,379.928 185.412,381.262 184.5,382.5C 182.208,382.756 180.041,382.423 178,381.5C 177.123,379.326 177.623,377.659 179.5,376.5 Z"/></g>
<g><path style="opacity:1" fill="#30978c" d="M 221.5,389.5 C 221.29,392.752 221.956,395.752 223.5,398.5C 223.611,399.117 223.944,399.617 224.5,400C 223.584,400.278 222.918,400.778 222.5,401.5C 204.868,403.219 187.202,404.553 169.5,405.5C 158.979,405.784 148.479,406.45 138,407.5C 133.881,408.185 130.714,406.852 128.5,403.5C 128.5,401.167 128.5,398.833 128.5,396.5C 150.178,395.23 171.845,393.73 193.5,392C 198.127,391.95 202.46,391.117 206.5,389.5C 207.627,388.878 208.627,388.045 209.5,387C 213.152,386.501 216.818,386.335 220.5,386.5C 220.263,387.791 220.596,388.791 221.5,389.5 Z"/></g>
<g><path style="opacity:1" fill="#8c5e59" d="M 251.5,386.5 C 252.097,386.735 252.43,387.235 252.5,388C 251.667,390.5 250.833,393 250,395.5C 249.697,392.376 250.197,389.376 251.5,386.5 Z"/></g>
<g><path style="opacity:1" fill="#865a58" d="M 255.5,386.5 C 256.097,386.735 256.43,387.235 256.5,388C 255.667,390.5 254.833,393 254,395.5C 253.749,392.406 254.249,389.406 255.5,386.5 Z"/></g>
<g><path style="opacity:1" fill="#8a5f5f" d="M 353.5,390.5 C 352.737,391.268 351.737,391.768 350.5,392C 340.5,392.833 330.5,393.667 320.5,394.5C 318.304,394.495 316.304,394.162 314.5,393.5C 327.512,392.642 340.512,391.642 353.5,390.5 Z"/></g>
<g><path style="opacity:1" fill="#815758" d="M 242.5,387.5 C 243.037,390.089 242.537,392.756 241,395.5C 240.554,392.667 241.054,390.001 242.5,387.5 Z"/></g>
<g><path style="opacity:0.999" fill="#eaa375" d="M 116.5,393.5 C 117.167,393.833 117.833,394.167 118.5,394.5C 118.611,395.117 118.944,395.617 119.5,396C 122.146,396.497 124.813,396.664 127.5,396.5C 127.198,399.059 127.532,401.393 128.5,403.5C 129.666,412.67 131.666,421.67 134.5,430.5C 125.095,435.148 115.262,437.482 105,437.5C 105.422,432.712 107.922,429.212 112.5,427C 104.577,428.058 96.5768,428.892 88.5,429.5C 85.4451,429.456 82.4451,429.123 79.5,428.5C 78.3691,426.926 78.2025,425.259 79,423.5C 89.2812,415.273 100.448,408.44 112.5,403C 114.207,400.021 115.541,396.854 116.5,393.5 Z"/></g>
<g><path style="opacity:1" fill="#424043" d="M 309.5,394.5 C 310.873,394.343 312.207,394.51 313.5,395C 307.983,395.084 302.649,396.084 297.5,398C 289.09,401.954 280.59,405.787 272,409.5C 263.674,405.915 255.507,402.248 247.5,398.5C 268.164,397.167 288.831,395.833 309.5,394.5 Z"/></g>
<g><path style="opacity:1" fill="#815c5f" d="M 223.5,398.5 C 225.307,399.615 227.307,400.281 229.5,400.5C 234.8,399.656 240.134,399.323 245.5,399.5C 238.617,400.936 230.95,401.602 222.5,401.5C 222.918,400.778 223.584,400.278 224.5,400C 223.944,399.617 223.611,399.117 223.5,398.5 Z"/></g>
<g><path style="opacity:1" fill="#3d4041" d="M 128.5,403.5 C 130.714,406.852 133.881,408.185 138,407.5C 148.479,406.45 158.979,405.784 169.5,405.5C 162.361,406.707 155.028,407.374 147.5,407.5C 147.357,430.698 158.69,444.698 181.5,449.5C 183.341,451.849 184.674,454.515 185.5,457.5C 163.155,458.165 146.155,449.165 134.5,430.5C 131.666,421.67 129.666,412.67 128.5,403.5 Z"/></g>
<g><path style="opacity:1" fill="#9bb793" d="M 262.5,474.5 C 255.25,476.813 247.916,478.813 240.5,480.5C 231.608,465.183 223.275,449.516 215.5,433.5C 222.776,430.688 230.109,428.188 237.5,426C 246.768,441.703 255.101,457.87 262.5,474.5 Z"/></g>
<g><path style="opacity:1" fill="#b65556" d="M 215.5,433.5 C 223.275,449.516 231.608,465.183 240.5,480.5C 230.82,486.891 220.154,489.724 208.5,489C 199.724,479.269 192.057,468.769 185.5,457.5C 184.674,454.515 183.341,451.849 181.5,449.5C 180.172,445.851 178.839,442.185 177.5,438.5C 177.931,436.234 179.264,434.734 181.5,434C 192.828,433.5 204.162,433.333 215.5,433.5 Z"/></g>
<g><path style="opacity:1" fill="#b65555" d="M 380.5,442.5 C 381.342,446.017 380.675,449.351 378.5,452.5C 371.407,467.846 362.407,482.012 351.5,495C 346.555,496.763 341.555,496.763 336.5,495C 330.508,492.999 324.842,490.499 319.5,487.5C 325.087,476.658 330.421,465.658 335.5,454.5C 350.577,450.469 365.577,446.469 380.5,442.5 Z"/></g>
<g><path style="opacity:1" fill="#9cb692" d="M 335.5,454.5 C 330.421,465.658 325.087,476.658 319.5,487.5C 311.687,485.302 304.021,482.969 296.5,480.5C 299.274,474.557 302.274,468.723 305.5,463C 315.616,460.46 325.616,457.627 335.5,454.5 Z"/></g>
</svg>
