<?xml version="1.0" encoding="UTF-8"?>
<!DOCTYPE svg PUBLIC "-//W3C//DTD SVG 1.1//EN" "http://www.w3.org/Graphics/SVG/1.1/DTD/svg11.dtd">
<svg xmlns="http://www.w3.org/2000/svg" version="1.1" width="64px" height="64px" style="shape-rendering:geometricPrecision; text-rendering:geometricPrecision; image-rendering:optimizeQuality; fill-rule:evenodd; clip-rule:evenodd" xmlns:xlink="http://www.w3.org/1999/xlink">
<g><path style="opacity:1" fill="#f09105" d="M 55.5,25.5 C 39.5,25.5 23.5,25.5 7.5,25.5C 7.5,22.8333 7.5,20.1667 7.5,17.5C 8.83333,17.5 10.1667,17.5 11.5,17.5C 11.5,16.1667 11.5,14.8333 11.5,13.5C 12.8333,13.5 14.1667,13.5 15.5,13.5C 15.5,12.1667 15.5,10.8333 15.5,9.5C 26.1667,9.5 36.8333,9.5 47.5,9.5C 47.5,10.8333 47.5,12.1667 47.5,13.5C 48.8333,13.5 50.1667,13.5 51.5,13.5C 51.5,14.8333 51.5,16.1667 51.5,17.5C 52.8333,17.5 54.1667,17.5 55.5,17.5C 55.5,20.1667 55.5,22.8333 55.5,25.5 Z"/></g>
<g><path style="opacity:1" fill="#feed8d" d="M 23.5,13.5 C 24.8333,13.5 26.1667,13.5 27.5,13.5C 27.5,14.8333 27.5,16.1667 27.5,17.5C 26.1667,17.5 24.8333,17.5 23.5,17.5C 23.5,16.1667 23.5,14.8333 23.5,13.5 Z"/></g>
<g><path style="opacity:1" fill="#feed8d" d="M 15.5,17.5 C 16.8333,17.5 18.1667,17.5 19.5,17.5C 19.5,18.8333 19.5,20.1667 19.5,21.5C 18.1667,21.5 16.8333,21.5 15.5,21.5C 15.5,20.1667 15.5,18.8333 15.5,17.5 Z"/></g>
<g><path style="opacity:1" fill="#feed8d" d="M 31.5,17.5 C 32.8333,17.5 34.1667,17.5 35.5,17.5C 35.5,18.8333 35.5,20.1667 35.5,21.5C 34.1667,21.5 32.8333,21.5 31.5,21.5C 31.5,20.1667 31.5,18.8333 31.5,17.5 Z"/></g>
<g><path style="opacity:1" fill="#feed8d" d="M 43.5,17.5 C 44.8333,17.5 46.1667,17.5 47.5,17.5C 47.5,18.8333 47.5,20.1667 47.5,21.5C 46.1667,21.5 44.8333,21.5 43.5,21.5C 43.5,20.1667 43.5,18.8333 43.5,17.5 Z"/></g>
<g><path style="opacity:1" fill="#47ad4c" d="M 7.5,25.5 C 23.5,25.5 39.5,25.5 55.5,25.5C 55.5,26.8333 55.5,28.1667 55.5,29.5C 39.5,29.5 23.5,29.5 7.5,29.5C 7.5,28.1667 7.5,26.8333 7.5,25.5 Z"/></g>
<g><path style="opacity:1" fill="#8b1538" d="M 7.5,29.5 C 23.5,29.5 39.5,29.5 55.5,29.5C 56.8333,29.5 58.1667,29.5 59.5,29.5C 59.5,32.1667 59.5,34.8333 59.5,37.5C 58.1667,37.5 56.8333,37.5 55.5,37.5C 39.5,37.5 23.5,37.5 7.5,37.5C 6.16667,37.5 4.83333,37.5 3.5,37.5C 3.5,34.8333 3.5,32.1667 3.5,29.5C 4.83333,29.5 6.16667,29.5 7.5,29.5 Z"/></g>
<g><path style="opacity:1" fill="#cb2738" d="M 7.5,37.5 C 23.5,37.5 39.5,37.5 55.5,37.5C 55.5,38.8333 55.5,40.1667 55.5,41.5C 39.5,41.5 23.5,41.5 7.5,41.5C 7.5,40.1667 7.5,38.8333 7.5,37.5 Z"/></g>
<g><path style="opacity:1" fill="#f09105" d="M 7.5,41.5 C 23.5,41.5 39.5,41.5 55.5,41.5C 55.5,44.1667 55.5,46.8333 55.5,49.5C 54.1667,49.5 52.8333,49.5 51.5,49.5C 51.5,50.8333 51.5,52.1667 51.5,53.5C 38.1667,53.5 24.8333,53.5 11.5,53.5C 11.5,52.1667 11.5,50.8333 11.5,49.5C 10.1667,49.5 8.83333,49.5 7.5,49.5C 7.5,46.8333 7.5,44.1667 7.5,41.5 Z"/></g>
</svg>
