<svg id="visual" viewBox="0 0 900 600" width="900" height="600" xmlns="http://www.w3.org/2000/svg" xmlns:xlink="http://www.w3.org/1999/xlink" version="1.1"><rect x="0" y="0" width="900" height="600" fill="#e6e5e5"></rect><path d="M0 415L150 410L300 379L450 418L600 388L750 414L900 348L900 601L750 601L600 601L450 601L300 601L150 601L0 601Z" fill="#c3c3c3"></path><path d="M0 440L150 421L300 468L450 429L600 374L750 387L900 397L900 601L750 601L600 601L450 601L300 601L150 601L0 601Z" fill="#9f9f9f"></path><path d="M0 419L150 477L300 478L450 476L600 481L750 462L900 468L900 601L750 601L600 601L450 601L300 601L150 601L0 601Z" fill="#7c7c7c"></path><path d="M0 526L150 472L300 493L450 469L600 499L750 536L900 491L900 601L750 601L600 601L450 601L300 601L150 601L0 601Z" fill="#5b5b5b"></path><path d="M0 561L150 570L300 525L450 549L600 575L750 549L900 517L900 601L750 601L600 601L450 601L300 601L150 601L0 601Z" fill="#3c3c3c"></path></svg>