<svg id="svg" version="1.1" xmlns="http://www.w3.org/2000/svg" xmlns:xlink="http://www.w3.org/1999/xlink" width="400" height="267.6470588235294" viewBox="0, 0, 400,267.6470588235294"><g id="svgg"><path id="path0" d="M231.621 16.626 C 229.600 18.795,227.974 22.966,218.619 49.981 L 212.005 69.080 205.757 70.324 C 198.400 71.789,194.911 74.743,197.490 77.322 C 198.749 78.581,199.829 78.651,204.153 77.754 C 210.601 76.417,210.355 75.094,206.301 89.286 C 199.028 114.756,199.029 114.751,196.729 115.625 C 194.268 116.561,152.661 120.051,143.627 120.079 L 137.745 120.098 137.877 117.032 C 138.050 112.992,144.815 88.351,150.970 69.342 C 156.513 52.223,156.631 51.450,153.944 50.012 C 149.616 47.696,144.364 60.795,134.020 99.711 C 128.215 121.549,126.860 124.510,122.670 124.510 C 119.579 124.510,107.099 128.784,105.489 130.394 C 101.875 134.007,108.371 136.026,116.726 133.885 C 126.226 131.451,126.095 130.482,120.028 158.342 C 109.995 204.405,109.730 205.910,109.518 218.013 C 109.340 228.164,109.533 229.794,111.029 230.753 C 115.573 233.666,120.568 223.431,118.621 215.196 C 117.636 211.025,117.765 208.686,119.488 199.510 C 124.157 174.656,133.750 133.036,135.232 131.206 C 137.715 128.139,194.569 122.971,195.623 125.717 C 195.922 126.496,194.373 134.678,192.181 143.899 C 188.153 160.843,176.259 217.350,175.008 225.490 C 174.635 227.917,172.772 234.645,170.869 240.442 C 167.120 251.862,167.327 253.922,172.229 253.922 C 176.383 253.922,178.048 248.226,187.816 200.614 C 195.750 161.944,204.422 125.549,206.101 123.875 C 206.790 123.189,211.765 121.931,217.157 121.081 C 232.466 118.666,235.255 117.319,233.641 113.113 C 233.005 111.456,230.972 111.479,215.462 113.327 C 207.286 114.300,207.388 111.866,216.825 80.715 L 218.658 74.666 223.790 73.532 C 230.602 72.027,264.899 64.865,270.967 63.681 C 284.284 61.080,283.871 59.382,277.012 88.557 C 266.958 131.319,249.371 227.283,250.674 232.267 C 251.294 234.639,255.018 235.066,256.763 232.964 C 257.379 232.221,259.402 222.095,261.259 210.460 C 273.150 135.961,289.084 62.469,293.895 59.939 C 296.425 58.608,332.982 54.203,364.500 51.432 C 381.817 49.909,384.603 49.105,384.128 45.767 C 383.577 41.896,363.805 42.836,313.472 49.129 C 293.146 51.671,293.926 51.918,294.737 43.187 C 295.820 31.535,290.666 32.199,287.753 44.086 C 285.555 53.053,284.950 53.454,268.555 56.798 C 260.776 58.384,247.178 61.262,238.336 63.194 C 229.494 65.125,222.018 66.463,221.723 66.167 C 220.978 65.423,228.662 42.906,234.018 30.137 C 239.563 16.917,238.249 9.511,231.621 16.626 M143.627 35.348 C 138.666 37.331,108.882 45.098,106.236 45.098 C 105.446 45.098,104.339 43.775,103.775 42.157 C 102.130 37.438,98.847 38.176,95.214 44.081 C 92.515 48.466,91.660 49.102,86.551 50.525 C 56.519 58.890,41.215 67.489,48.351 71.989 C 49.609 72.782,50.675 72.623,52.705 71.337 C 63.711 64.367,87.784 56.506,88.935 59.507 C 89.260 60.353,82.871 81.170,74.739 105.767 C 66.606 130.365,56.622 162.623,52.552 177.451 C 39.500 224.999,40.594 222.124,35.008 223.545 C 18.827 227.659,13.928 230.165,15.263 233.644 C 16.273 236.276,19.176 236.464,25.669 234.318 C 29.076 233.193,38.260 231.171,46.078 229.826 C 80.607 223.884,91.435 220.154,89.732 214.788 C 88.816 211.901,87.353 211.847,78.922 214.391 C 58.814 220.457,50.000 221.346,50.000 217.308 C 50.000 210.691,95.056 64.554,99.085 58.102 C 101.043 54.967,102.592 54.385,124.546 48.543 C 149.301 41.955,153.197 40.287,152.756 36.469 C 152.364 33.072,150.035 32.786,143.627 35.348 " stroke="none" fill="#000000" fill-rule="evenodd"></path></g></svg>