<svg id="visual" viewBox="0 0 900 900" width="900" height="900" xmlns="http://www.w3.org/2000/svg" xmlns:xlink="http://www.w3.org/1999/xlink" version="1.1"><rect x="0" y="0" width="900" height="900" fill="#e6e5e5"></rect><path d="M0 484L129 413L257 435L386 511L514 520L643 473L771 516L900 481L900 901L771 901L643 901L514 901L386 901L257 901L129 901L0 901Z" fill="#c3c3c3"></path><path d="M0 487L129 496L257 493L386 477L514 537L643 569L771 496L900 554L900 901L771 901L643 901L514 901L386 901L257 901L129 901L0 901Z" fill="#ababab"></path><path d="M0 628L129 607L257 543L386 617L514 624L643 627L771 624L900 545L900 901L771 901L643 901L514 901L386 901L257 901L129 901L0 901Z" fill="#939393"></path><path d="M0 617L129 638L257 627L386 629L514 607L643 610L771 664L900 654L900 901L771 901L643 901L514 901L386 901L257 901L129 901L0 901Z" fill="#7c7c7c"></path><path d="M0 712L129 715L257 680L386 713L514 697L643 676L771 667L900 698L900 901L771 901L643 901L514 901L386 901L257 901L129 901L0 901Z" fill="#666666"></path><path d="M0 754L129 734L257 758L386 738L514 739L643 781L771 747L900 757L900 901L771 901L643 901L514 901L386 901L257 901L129 901L0 901Z" fill="#505050"></path><path d="M0 831L129 809L257 820L386 809L514 831L643 804L771 830L900 811L900 901L771 901L643 901L514 901L386 901L257 901L129 901L0 901Z" fill="#3c3c3c"></path></svg>