<svg id="visual" viewBox="0 0 900 450" width="900" height="450" xmlns="http://www.w3.org/2000/svg" xmlns:xlink="http://www.w3.org/1999/xlink" version="1.1"><rect x="0" y="0" width="900" height="450" fill="#e6e5e5"></rect><path d="M0 332L100 353L200 329L300 353L400 330L500 257L600 264L700 280L800 235L900 233L900 0L800 0L700 0L600 0L500 0L400 0L300 0L200 0L100 0L0 0Z" fill="#bfbfbf"></path><path d="M0 208L100 235L200 276L300 266L400 269L500 242L600 230L700 282L800 297L900 264L900 0L800 0L700 0L600 0L500 0L400 0L300 0L200 0L100 0L0 0Z" fill="#ababab"></path><path d="M0 220L100 274L200 202L300 192L400 179L500 230L600 197L700 190L800 256L900 194L900 0L800 0L700 0L600 0L500 0L400 0L300 0L200 0L100 0L0 0Z" fill="#979797"></path><path d="M0 180L100 149L200 197L300 231L400 177L500 220L600 187L700 163L800 230L900 214L900 0L800 0L700 0L600 0L500 0L400 0L300 0L200 0L100 0L0 0Z" fill="#848484"></path><path d="M0 178L100 181L200 187L300 154L400 118L500 188L600 183L700 190L800 150L900 116L900 0L800 0L700 0L600 0L500 0L400 0L300 0L200 0L100 0L0 0Z" fill="#717171"></path><path d="M0 137L100 106L200 117L300 120L400 144L500 90L600 132L700 123L800 99L900 144L900 0L800 0L700 0L600 0L500 0L400 0L300 0L200 0L100 0L0 0Z" fill="#5f5f5f"></path><path d="M0 87L100 64L200 73L300 62L400 66L500 86L600 81L700 80L800 89L900 99L900 0L800 0L700 0L600 0L500 0L400 0L300 0L200 0L100 0L0 0Z" fill="#4d4d4d"></path><path d="M0 65L100 36L200 42L300 53L400 43L500 37L600 44L700 62L800 57L900 36L900 0L800 0L700 0L600 0L500 0L400 0L300 0L200 0L100 0L0 0Z" fill="#3c3c3c"></path></svg>