<svg id="visual" viewBox="0 0 900 450" width="900" height="450" xmlns="http://www.w3.org/2000/svg" xmlns:xlink="http://www.w3.org/1999/xlink" version="1.1"><rect x="0" y="0" width="900" height="450" fill="#e6e5e5"></rect><path d="M0 206L82 201L164 211L245 193L327 169L409 182L491 193L573 192L655 213L736 187L818 188L900 128L900 451L818 451L736 451L655 451L573 451L491 451L409 451L327 451L245 451L164 451L82 451L0 451Z" fill="#bfbfbf"></path><path d="M0 258L82 206L164 209L245 189L327 255L409 194L491 186L573 220L655 222L736 255L818 222L900 184L900 451L818 451L736 451L655 451L573 451L491 451L409 451L327 451L245 451L164 451L82 451L0 451Z" fill="#a3a3a3"></path><path d="M0 243L82 280L164 270L245 272L327 252L409 234L491 274L573 289L655 277L736 225L818 285L900 258L900 451L818 451L736 451L655 451L573 451L491 451L409 451L327 451L245 451L164 451L82 451L0 451Z" fill="#878787"></path><path d="M0 335L82 337L164 306L245 288L327 275L409 286L491 300L573 282L655 337L736 306L818 311L900 317L900 451L818 451L736 451L655 451L573 451L491 451L409 451L327 451L245 451L164 451L82 451L0 451Z" fill="#6d6d6d"></path><path d="M0 339L82 323L164 376L245 355L327 355L409 344L491 334L573 353L655 369L736 349L818 369L900 357L900 451L818 451L736 451L655 451L573 451L491 451L409 451L327 451L245 451L164 451L82 451L0 451Z" fill="#545454"></path><path d="M0 402L82 369L164 393L245 406L327 386L409 412L491 390L573 413L655 392L736 387L818 392L900 414L900 451L818 451L736 451L655 451L573 451L491 451L409 451L327 451L245 451L164 451L82 451L0 451Z" fill="#3c3c3c"></path></svg>